<svg xmlns="http://www.w3.org/2000/svg" viewBox="0 0 347.07 138.58"><defs><style>.cls-1{fill:#6e0f39;}</style></defs><g id="Layer_2" data-name="Layer 2"><g id="Layer_1-2" data-name="Layer 1"><path class="cls-1" d="M66.59,69.34a34.2,34.2,0,0,0-15.17,10,33.38,33.38,0,0,0-4.91,7.34,31.77,31.77,0,0,0-2.79,8.5l63.35-15.68-5.55,1.59q3.42-.91,5.65-1.47l3.44-.86,1.55-.38a19.46,19.46,0,0,1-2.41.81c-1.62.5-3.63,1.09-6,1.79s-5,1.42-7.76,2.18L88.3,85.21c2-.46,4.34-1,6.9-1.61s5.18-1.23,7.82-1.84L110.74,80l6.71-1.53c2-.44,3.56-.77,4.76-1s1.83-.3,1.85-.21-.35.3-1.16.5l-1.42.36a.69.69,0,0,0-.23.09,1.26,1.26,0,0,1-.29.11h-.07c.07.08.37.07.92,0s.93-.19,1.15-.25l1.2-.08-.66.23v-.06c-.23,0-.82.24-1.77.54s-2.45.78-4.51,1.41-4.76,1.45-8.07,2.44-7.46,2.18-12.46,3.56a73.51,73.51,0,0,1-4.39,21.25,46.42,46.42,0,0,1-9.08,14.9A45.22,45.22,0,0,1,70.07,132a80.78,80.78,0,0,1-16.43,5.94,20.16,20.16,0,0,1-9.79.07,29.25,29.25,0,0,1-8.75-3.66,27.76,27.76,0,0,1-6.66-5.75A16.1,16.1,0,0,1,25,122.36a59.45,59.45,0,0,1-1.16-9,58.05,58.05,0,0,1,.19-8.46l-4.79,1.19q-5.4,1.33-8.42,2c-2,.43-3.52.73-4.51.88a9.47,9.47,0,0,1-1.86.17q-.37,0-.39-.12t.6-.33c.43-.12,1-.33,1.75-.61a34.55,34.55,0,0,1-5,1c-.85,0-1.32-.11-1.41-.48s.2-.53.8-.8a18.75,18.75,0,0,1,1.76-.69c-.78.1-1.2,0-1.26-.19s.08-.31.34-.51a11.29,11.29,0,0,1,2.61-1c1.49-.47,3.83-1.13,7-2s7.72-2,13.55-3.55a47.59,47.59,0,0,1,5.85-15.09,56.15,56.15,0,0,1,9.54-11.9A55.15,55.15,0,0,1,52,64.35a53.71,53.71,0,0,1,12.52-4.94,33,33,0,0,1,8.63-1.15,21,21,0,0,1,6.07.93,9.47,9.47,0,0,1,3.71,2.12,5.57,5.57,0,0,1,1.59,2.5A2.52,2.52,0,0,1,84,66.37a4.45,4.45,0,0,1-2,1.15,12.16,12.16,0,0,1-2.54.31l-3.17.07c-1.14,0-2.38.09-3.71.21a25.52,25.52,0,0,0-4.09.69l-.91.23A7,7,0,0,0,66.59,69.34ZM57.15,120.1a47.51,47.51,0,0,0,8.35-2.87A26.18,26.18,0,0,0,72,113.07a20.78,20.78,0,0,0,4.53-5.71,22.28,22.28,0,0,0,2.37-7.43l-5.62,1.29-3.55.85c-.87.22-1.5.36-1.86.42s-.53.08-.5,0c-.49-.07-.77-.21-.82-.44a.22.22,0,0,1,0-.14.56.56,0,0,0,0-.21q-4,.91-6.71,1.52c-1.81.41-3.27.72-4.38,1s-1.92.37-2.41.42-.74,0-.75,0,.16-.14.51-.27.81-.3,1.38-.49l2-.63,2.22-.7.12-.38q-.72.24-1.86.57c-.76.21-1.57.42-2.42.63s-1.51.37-2.23.52l-2,.42c-.59.13-1.07.22-1.43.29s-.55.08-.57,0c.85-.26,1.52-.47,2-.65l1.39-.45q.63-.2.6-.33l-1.82.17a4.08,4.08,0,0,1-1.22,0c0-.09.11-.18.4-.27s.61-.19,1-.28l3.57-.89c.8-.24,1.34-.41,1.63-.51s.43-.17.41-.21-.12,0-.35,0a8.55,8.55,0,0,1-1.89.32c-.36,0-.54,0-.55-.08s.15-.22.54-.42a6.9,6.9,0,0,1,1.31-.47l3.93-.9c.2-.15.3-.24.29-.29s-.23-.13-.61-.13-.82,0-1.31,0-1,0-1.39,0a2.74,2.74,0,0,1-.87-.06l-2.21-1.1c0-.05.24-.14.75-.3s1.17-.32,2-.52,1.69-.43,2.62-.69,1.8-.49,2.59-.68l2-.5.74-.18c-1.9.42-3.39.77-4.46,1a8.25,8.25,0,0,1-2.5.33L43.09,100.1a37.7,37.7,0,0,0,1.13,10.61,19.31,19.31,0,0,0,1.59,4.22,11.1,11.1,0,0,0,2.62,3.36,9.3,9.3,0,0,0,3.78,1.93A10,10,0,0,0,57.15,120.1Zm-2.89-20c0,.09-.14.2-.49.33a12.06,12.06,0,0,1-1.25.42l-1.54.46-1.27.35c-1,.25-1.67.39-2,.44s-.57,0-.59-.07.29-.27.94-.52a25.68,25.68,0,0,1,2.94-.88c.81-.2,1.54-.36,2.21-.47S54.2,100,54.26,100.12Zm-5.63,5.55a7,7,0,0,0,.73-.21c.26-.09.53-.17.8-.24a1.36,1.36,0,0,1,.53,0,1.53,1.53,0,0,0,.33,0,2.42,2.42,0,0,1-.74.62,3.73,3.73,0,0,1-1,.37,1.53,1.53,0,0,1-.63.05c-.2,0-.31-.1-.34-.23A.44.44,0,0,1,48.63,105.67ZM60,99.4q5-1.4,7.28-2.1a16.88,16.88,0,0,0,2.63-.94l.06-.08s-.25,0-.7.1-1,.26-1.63.48-1.43.44-2.24.66-1.63.47-2.5.73-1.68.49-2.45.68Zm3.6,3.54c0,.1,0,.19,0,.28a.86.86,0,0,0,0,.28c-.9.22-1.44.17-1.62-.17Z"/><path class="cls-1" d="M116.73,51.79s-.09-.09-.21-.13a.43.43,0,0,1-.27-.33,1,1,0,0,1,.21-.62,1.12,1.12,0,0,1,.25-.42l1.16.07a3,3,0,0,1,.56-.93c.26-.3.52-.62.77-.94a8,8,0,0,0,.65-1,1.3,1.3,0,0,0,.15-1c0-.09.08-.23.29-.43a2.67,2.67,0,0,1,1.13-.49l.54-.14a1.06,1.06,0,0,1,.08-.95,1.09,1.09,0,0,1,.53-.34.72.72,0,0,1,.24,0,.72.72,0,0,0,.25,0,5.86,5.86,0,0,0,2.79-1.45,3.87,3.87,0,0,1,1.58-1.14,1.63,1.63,0,0,1,.79,0,16.42,16.42,0,0,0,2-.75l3.27-1.39,3.92-1.65,4-1.68q1.92-.8,3.42-1.38a20.07,20.07,0,0,1,2.24-.78,12.38,12.38,0,0,1,3.55-.27,6.14,6.14,0,0,1,3.75,1.68,18.62,18.62,0,0,1,3.31,4.12,17.55,17.55,0,0,1,2.15,4.91,16,16,0,0,1,.13,7.56,25.51,25.51,0,0,1-2.72,6.91,36.24,36.24,0,0,1-4.4,6.07,52.46,52.46,0,0,1-5,4.93c1.26-.31,2.52-.64,3.77-1s2.6-.69,4-1l14-3.56.74-.18a4.22,4.22,0,0,1,.83-.14l10.86-2.7a5.34,5.34,0,0,1,1.14-.17c.35,0,.54,0,.56.11s-.28.21-.91.37c-1.17.29-2.16.52-3,.7l-2.34.51-2.44.54c-.89.19-2,.46-3.35.79a7.77,7.77,0,0,1-1.75.58c-1.23.36-2.69.77-4.39,1.24l-5.19,1.43c-1.77.49-3.17.86-4.2,1.12l-1.08.27L162,67.17c2.61-.61,5.33-1.22,8.13-1.85s5.57-1.25,8.31-1.88,5.18-1.18,7.35-1.65,3.94-.84,5.28-1.1a12.87,12.87,0,0,1,2-.33c0,.14-.28.29-1,.46l-4.95,1.37c.12.12.47.11,1.07,0s1.2-.26,1.83-.42l.75-.15c.45-.09.93-.17,1.44-.25a12.65,12.65,0,0,1,1.43-.15q.68,0,.72.18t-.63.48a18.67,18.67,0,0,1-2.52,1q-1.86.61-5.13,1.56t-8.37,2.34c-3.4.91-7.51,2-12.33,3.24S155,72.64,148.52,74.25l-1.79.44c-.42.11-.93.22-1.52.34l-2.38.52c-1,.23-2.39.56-4.19,1a36.09,36.09,0,0,1-4.57,2.93c-1.52.8-3,1.66-4.52,2.55a18.12,18.12,0,0,0,3.27,3.38,41.25,41.25,0,0,0,6.38,4.18,88.94,88.94,0,0,0,10.37,4.72,155,155,0,0,0,15.27,4.94q5,1.41,10.21,2.34t10.5,1.75q5.3.84,10.61,1.77t10.47,2.37c.29,0,.62,0,1,.05a8.38,8.38,0,0,1,1.1.08,3.65,3.65,0,0,1,1.07.31,3,3,0,0,1,1,.75,1.9,1.9,0,0,0-.36.12,1.28,1.28,0,0,1-.36.13,1.41,1.41,0,0,1-.73,0,2.15,2.15,0,0,0-.74-.11,4,4,0,0,0-.86.29,1.57,1.57,0,0,0,1,1.29,5.88,5.88,0,0,1,1.41.62c-.09,0-.11.12-.07.3q-1.23,0-2.58-.15T205,110.9a4.08,4.08,0,0,0-1.51.84,3.87,3.87,0,0,1-1.44.82,4.29,4.29,0,0,1-1.52.09c-.51-.06-1-.13-1.55-.22l-1.53-.23a3.68,3.68,0,0,0-1.41.07,7.5,7.5,0,0,1-1.64.62,7.13,7.13,0,0,1-1.67.2A1.13,1.13,0,0,1,192,113l-.76-.35q-.41-.18-.84-.33a1.61,1.61,0,0,0-.9,0,26.37,26.37,0,0,1-2.86.46c-1.27.15-2.73.27-4.38.37s-3.41.17-5.28.2-3.72,0-5.52,0-3.51-.16-5.1-.31a28.45,28.45,0,0,1-4-.62q-9.31-2.34-15.54-4.48a107.55,107.55,0,0,1-10.28-4,47.26,47.26,0,0,1-6.43-3.52q-2.37-1.63-4-3c-1.12-.94-2.14-1.79-3.06-2.54a13.47,13.47,0,0,0-3.53-2,36.09,36.09,0,0,0-1.92,5.82,52,52,0,0,0-1.23,7.71,43.14,43.14,0,0,1-1.72,9.1q-1.14,3.36-3.49,3.94a.49.49,0,0,1-.68-.4.71.71,0,0,1,0-.29l0-1.58-.95,4.53c-.07.49-.17.76-.3.79s-.08,0-.09,0a5.33,5.33,0,0,1-.08-1.62,15.54,15.54,0,0,1,.29-2.15c.14-.76.29-1.48.42-2.19s.26-1.32.36-1.88a17.07,17.07,0,0,0-1.22,3.32c-.36,1.33-.67,2.62-.93,3.88s-.47,2.35-.62,3.27a5.71,5.71,0,0,1-.3,1.4.06.06,0,0,1-.08,0,1.19,1.19,0,0,1,0-.42l.06-.6s0-.48.14-1.32.18-1.62.24-2.35l-.1.17c.07-.88.12-1.57.16-2.08s.1-1.18.18-2l0-.13-.39,2.17c-.11.55-.2,1.05-.28,1.5s-.14.68-.18.69-.09-.05-.12-.18a2.6,2.6,0,0,1,0-.28c0-.14,0-.39,0-.75s0-.88.08-1.56.11-1.6.2-2.77a.79.79,0,0,1-.19.23c-.06,0-.14.17-.22.41a10.51,10.51,0,0,0-.29,1.14c-.11.53-.22,1.34-.33,2.41a8.59,8.59,0,0,1-.28,1.33c-.12.39-.22.59-.31.61s-.08,0-.1-.12a3.47,3.47,0,0,1,0-1.14l.2-2.92a.06.06,0,0,0-.08,0q-.41.1-.57,1.32c-.1.82-.2,1.71-.3,2.69s-.16,1.87-.23,2.67-.16,1.23-.29,1.26-.09,0-.12-.19a6.17,6.17,0,0,1-.07-1.13l.07-1.45s0-.36,0-1,0-1.23,0-1.9,0-1.69,0-2.65c-.11,1.27-.19,2.19-.24,2.75s-.1.85-.15.86,0-.6,0-1.68,0-2.28,0-3.62,0-2.62,0-3.84a12.64,12.64,0,0,0-.16-2.36c-.1.74-.21,1.63-.34,2.67s-.25,2-.38,2.92-.26,1.7-.38,2.35a3.22,3.22,0,0,1-.26,1V119c0-.09,0-.78-.08-2.06s0-3.27.09-6,.23-6.15.42-10.38.52-9.35,1-15.39l-7.9,2A78.49,78.49,0,0,1,87,88.89a13.67,13.67,0,0,1-3.19.29c0-.09.29-.28.93-.59a8,8,0,0,1-2.1.35.65.65,0,0,1-.66-.52c-.06-.22.06-.43.34-.62a6.73,6.73,0,0,1,.75-.44c-.42,0-.66-.07-.7-.25a.48.48,0,0,1,0-.34,1.82,1.82,0,0,1,.66-.52A13.8,13.8,0,0,1,85,85.47c.85-.31,2.09-.69,3.69-1.14l6-1.64q3.63-1,9-2.3.52-7.71,1-11.87a36.35,36.35,0,0,1,.91-5.71c.1-1.12.21-2.17.33-3.16s.22-1.75.32-2.3a2.89,2.89,0,0,0,0-.92c0-.42-.1-.84-.13-1.26a5.78,5.78,0,0,1,0-1.11.61.61,0,0,1,.47-.58,7.31,7.31,0,0,1,2.14,0q1.55.15,3.18.39c1.09.16,2.06.32,2.92.49a4.77,4.77,0,0,1,1.38.38,2,2,0,0,1,.63.23,10.17,10.17,0,0,1,1.2.64,7.1,7.1,0,0,1,1.18.88,2.18,2.18,0,0,1,.69,1,10.41,10.41,0,0,0,.36,1.13c.14.39.26.77.35,1.13a20.68,20.68,0,0,1,.58,4.08,39.79,39.79,0,0,1,0,4.23c-.08,1.4-.19,2.8-.32,4.2s-.22,2.74-.28,4c1.67-.37,2.91-.63,3.71-.78s1.36-.24,1.69-.27a20,20,0,0,0,5.08-4,30.17,30.17,0,0,0,3.68-5,33.45,33.45,0,0,0,2.52-5.24c.66-1.77,1.2-3.4,1.61-4.91s.72-2.82.92-3.92.37-1.88.5-2.34a15.36,15.36,0,0,0-2.59.24c-1.24.19-2.66.46-4.24.81s-3.27.73-5,1.15-3.46.82-5,1.21c-.72.18-1.34.35-1.88.51l-1.4.38c-1,.26-1.69.23-2-.09a6.78,6.78,0,0,1,.45-.93,1.18,1.18,0,0,0,.09-.92.38.38,0,0,0-.06-.13.34.34,0,0,1-.09-.19,1.56,1.56,0,0,1-.45.19A1.1,1.1,0,0,1,116.73,51.79ZM104.9,113.38a1.12,1.12,0,0,0,.35-.87,3.73,3.73,0,0,0,0-.8l0-.2a7.47,7.47,0,0,1-.1-1c0-.51-.07-1-.11-1.62s-.09-1.09-.11-1.58a6.37,6.37,0,0,0-.08-.88,11.33,11.33,0,0,0,0,1.16c0,.67,0,1.41,0,2.21s0,1.57,0,2.29A9.2,9.2,0,0,0,104.9,113.38Zm.34,13.17a8.56,8.56,0,0,1,.12-1.07c.09-.53.19-1.08.31-1.66s.22-1.11.31-1.61.15-.83.16-1a3.29,3.29,0,0,1,0,.92c0,.44-.08.89-.13,1.36s-.1.9-.14,1.29a2.68,2.68,0,0,0,0,.79l0,.07a11.67,11.67,0,0,1-.32,1.33q-.23.81-.36.84A4.14,4.14,0,0,1,105.24,126.55Zm4.37-31.1a1.22,1.22,0,0,1-.19-.45,3.56,3.56,0,0,0-.18,1c0,.56-.11,1.16-.19,1.8s-.17,1.25-.27,1.82a2.53,2.53,0,0,1-.31,1.05,7,7,0,0,0-.18,1.44c-.07.95-.14,2-.2,3.23s-.1,2.37-.13,3.48A9.69,9.69,0,0,0,108,111l.1.11a8.65,8.65,0,0,0,.16-1.07c.1-.77.19-1.72.29-2.87s.22-2.38.37-3.71.27-2.56.36-3.71.24-2.5.42-4.07A.58.58,0,0,1,109.61,95.45Zm1.5,14.67A.21.21,0,0,1,111,110a.21.21,0,0,0-.1-.12l-.17-.1a1.11,1.11,0,0,0-.11.25l-.07.16a.17.17,0,0,0,0,.15q-.15,1.75-.18,2.58a5.44,5.44,0,0,0,0,1l0,.07s.13-.21.24-.6.24-.8.34-1.23l.45-1.79Zm1.8-57.24a.06.06,0,0,1-.08-.05l-.2-.24a.6.6,0,0,1,.12-.39.44.44,0,0,1,.15-.25,9.6,9.6,0,0,1,1.31.1c.21.05.31.09.32.14.06.22-.11.45-.51.66a5.15,5.15,0,0,1-.73.36c-.1,0-.15,0-.16-.06A.65.65,0,0,0,112.91,52.88Zm.5,47.21a.56.56,0,0,0,.07-.16.43.43,0,0,1,.07-.16l.1-.17a.4.4,0,0,0-.27-.07.25.25,0,0,1-.19,0q-.14,0-.15,0a2.12,2.12,0,0,1,0,.42,2.31,2.31,0,0,0,.05.49l0,.07Zm.78,6.32a.68.68,0,0,0-.43.83,1.14,1.14,0,0,0,.42.72c.2.12.28.18.23.19s.17-.12.25-.31.2-.59.38-1.2l-.2-.24a.49.49,0,0,0-.18-.14.52.52,0,0,1-.16-.06.67.67,0,0,1-.25.13S114.18,106.37,114.19,106.41Zm3.28-59.68a.06.06,0,0,1-.08,0l-.2-.24a.53.53,0,0,1,.12-.38.46.46,0,0,1,.15-.26,9,9,0,0,1,1.31.11c.21,0,.31.09.32.13.06.23-.11.45-.51.67a4.55,4.55,0,0,1-.74.36c-.09,0-.14,0-.16-.07A.54.54,0,0,0,117.47,46.73Zm11.26,33.73,4.21-1.77a10.49,10.49,0,0,1-1.34.23,10.75,10.75,0,0,0-1.54.28,7.33,7.33,0,0,0-1.1.34c-.28.12-.39.29-.34.51Z"/><path class="cls-1" d="M178.1,89.24l1.68-.46c.62-.18,1.25-.34,1.88-.5,1-.26,2.49-.6,4.37-1l6.27-1.42c2.3-.53,4.7-1.06,7.19-1.61l7.12-1.59,6.11-1.38c1.81-.4,3.18-.72,4.13-1l-1.41.53L212,82.1c-1.31.47-2.59.92-3.82,1.34s-2,.69-2.45.79l-.14,0a3.33,3.33,0,0,0,1.81-.09c1-.19,2.16-.46,3.55-.81s2.88-.74,4.44-1.17L219.73,81l3.37-1,1.57-.46a7,7,0,0,1,1.07-.16c.44,0,.69,0,.73.21s-.11.32-.47.41c-.18,0-.41.09-.68.13a6.2,6.2,0,0,0-.75.15,2.05,2.05,0,0,0-.84.39.74.74,0,0,0-.16.79c0,.13-.32.3-1,.51s-1.55.42-2.42.64-1.69.43-2.42.64a3.74,3.74,0,0,0-1.09.37c0,.18.27.26.67.23a11.87,11.87,0,0,0,1.32-.15l1.35-.19c.41,0,.63,0,.66.05s0,.18-.16.26a14,14,0,0,1-1.64.3,8.69,8.69,0,0,0-1.24.2.65.65,0,0,1-.64-.27c-.2-.24-.35-.35-.44-.33l0,.07.07.27.05.2a.17.17,0,0,0,.1.12,1.35,1.35,0,0,1-.88.51,5.91,5.91,0,0,1-1.14.17,5.76,5.76,0,0,0-1,.15c-.14,0-.29.22-.46.58a1.45,1.45,0,0,1-1,.71.56.56,0,0,1-.21,0,.52.52,0,0,0-.21,0c.65-.06,1.17-.12,1.57-.17s.76-.08,1.12-.1a1.46,1.46,0,0,1,.61,0c0,.09-.16.18-.57.28l-1.21.3-.71.18c-.2,0-.33.06-.39,0a5.8,5.8,0,0,0-.63.2.32.32,0,0,0-.21.44c0,.09.29.1.82,0s1.19-.21,2-.38,1.65-.38,2.57-.61l2.57-.63c.78-.2,1.45-.34,2-.43s.84-.09.86,0c-1.5.47-3,1-4.43,1.46-1.28.42-2.61.85-4,1.31l-3.57,1.21a3.62,3.62,0,0,1-.72.86,4.55,4.55,0,0,1-2.23,1.09,10.76,10.76,0,0,0-2,.93c-1,.52-2.11,1.17-3.43,1.92S199.1,96,197.57,97l-4.51,2.74q-2.22,1.33-4.12,2.45c-1.27.75-2.33,1.35-3.17,1.79q-1.52.81-3,1.5a11.81,11.81,0,0,0-2.48,1.51,1.89,1.89,0,0,1-1,.68,4.26,4.26,0,0,1-2.83-.55,23.81,23.81,0,0,1-3.62-2.33,48.11,48.11,0,0,1-3.91-3.36c-1.31-1.24-2.52-2.46-3.63-3.64a42.64,42.64,0,0,1-2.78-3.25,10,10,0,0,1-1.35-2.13,7.38,7.38,0,0,1-.06-2.28q.13-1.47.51-3.42c.25-1.3.54-2.74.89-4.31s.75-3.19,1.19-4.87a4.75,4.75,0,0,1-3.54-1.27,6.18,6.18,0,0,1-1.33-2.47c-.07-.31-.13-.59-.17-.85s-.06-.49-.08-.73a3.62,3.62,0,0,1,0-.73Q152.43,73,149,73.74t-5.18,1.07a10.23,10.23,0,0,1-2.11.28c-.27,0-.42-.09-.44-.18s.18-.2.6-.33,1-.33,1.74-.61a31.87,31.87,0,0,1-5,1c-.85,0-1.32-.11-1.41-.48s.22-.54.84-.81,1.2-.5,1.73-.68c-.79.1-1.21,0-1.27-.19a.42.42,0,0,1,.1-.31,3.18,3.18,0,0,1,1-.53c.57-.24,1.43-.54,2.61-.9s2.82-.83,4.95-1.41l8.06-2.15q4.88-1.27,11.88-3l1.19-5.31c.22-1.06.53-2.29.94-3.71s.85-2.88,1.31-4.4.92-3.05,1.4-4.58.91-2.9,1.3-4.12.73-2.23,1-3,.44-1.29.5-1.45a8.47,8.47,0,0,1,.93-1.88,1.73,1.73,0,0,1,1-.66,2.93,2.93,0,0,1,.76-.09,4,4,0,0,0,1-.13,3.74,3.74,0,0,0,1.47-.72,10.19,10.19,0,0,1,1.47-.58c.89-.32,2-.7,3.29-1.14l4.16-1.43c1.47-.51,2.86-1,4.17-1.4s2.39-.77,3.28-1.06l1.45-.47c1.13-.28,2.71-.7,4.74-1.25s4.27-1.17,6.7-1.85l7.54-2.09,7.24-2,5.75-1.61q2.41-.67,3.09-.84l.27-.07c0,.05,0,.08-.12.1a4.64,4.64,0,0,0,.53-.16,3.62,3.62,0,0,1,.53-.17c.32-.08.68-.18,1.07-.3a6.52,6.52,0,0,1,1.19-.26,4.66,4.66,0,0,1,1,0,.55.55,0,0,1,.54.43c0,.14,0,.22-.08.24a3.3,3.3,0,0,1-.77-.06,3,3,0,0,0-1.17,0l-.63.37a2.83,2.83,0,0,0,.22.45c.13.21.25.44.39.69l.41.79a3.08,3.08,0,0,1,.26.62c0,.13-.08.24-.35.3a5.65,5.65,0,0,1-1,.14,6.35,6.35,0,0,0-1,.15,73.72,73.72,0,0,1-5.65,5.37,46.38,46.38,0,0,1-5.57,4.08,59.83,59.83,0,0,1-6.16,3.32q-3.27,1.53-7.43,3.1t-9.42,3.45q-5.25,1.88-12.09,4.37a14.67,14.67,0,0,0-.91,2.37,28.15,28.15,0,0,0-.79,3.31c-.21,1.18-.37,2.3-.48,3.38a16.58,16.58,0,0,0-.12,2.68c.63-.15,1.34-.32,2.13-.49s1.7-.39,2.74-.65A5.33,5.33,0,0,0,191,56l.8-.23.83-.13q2.83-.71,5.77-1.4c2-.47,3.74-.85,5.34-1.15,2-.59,3.66-1.08,5-1.45s2.41-.67,3.26-.88l1.92-.48.91-.23,2.34-.54c1.06-.24,2.24-.5,3.53-.77s2.61-.55,4-.81,2.57-.51,3.69-.74,2-.39,2.74-.5,1.08-.11,1.1,0a4.38,4.38,0,0,1-1.19.4c-.8.23-1.73.48-2.78.76s-2.09.6-3.1.92a9.87,9.87,0,0,0-2.09.84l19.11-3.82,14.5-3.61a7.18,7.18,0,0,1,1.38-.2c.43,0,.65,0,.68.12s-.36.31-1.17.51c-1.35.33-2.49.61-3.41.81l-2.72.6c-.88.2-1.84.4-2.89.62s-2.33.5-3.86.88l0,.07s-.32.16-1,.35-1.54.44-2.61.73l-3.63,1-4,1.07-3.83,1-3,.78-.81.21c0,.09.66,0,1.91-.23s2.91-.58,5-1,4.39-1,7-1.59,5.25-1.25,8-1.88,5.39-1.26,8-1.88,4.92-1.16,7-1.63l4.95-1.09c1.25-.26,1.88-.34,1.91-.25s-.36.3-1.17.5l-1.41.35a.7.7,0,0,0-.23.1,1.28,1.28,0,0,1-.3.1l-.06,0c.06.08.37.06.92-.05s.93-.19,1.15-.25l1.2-.08-.66.23-.56.07c-.67.17-1.91.52-3.71,1.07l-7.33,2.18q-4.63,1.37-11.26,3.26t-15.47,4.31l.14,0a6.47,6.47,0,0,1,1.38-.2c.43,0,.65,0,.67.12s-.35.3-1.16.5l-3.2.8c-.88.22-1.73.4-2.55.56,0,.1,0,.2-.07.3a1.08,1.08,0,0,1-.13.32l1.72-.42c.74-.19,1.48-.36,2.23-.52s1.4-.29,2-.38.84-.07.87.07-.35.3-1.16.5l-1.42.35s-.25.1-.61.27l-1.23.52c-.46.18-.93.38-1.43.6a8,8,0,0,1-1.21.45l2.72-.57c.55-.11.83-.15.84-.1s-.14.11-.45.22l-1.23.37-1.71.5q-.93.27-1.86.57c.12.11.25.25.39.4l2.19-.4,2-.35,1.48-.23c.4,0,.6,0,.61,0s-.41.27-1.3.53-2.43.71-4.62,1.3a1,1,0,0,1-.58.82,13.57,13.57,0,0,0-1.17.76l-1.45.54q-1.5.55-4.08,1.41l-6,2-7.08,2.33c-2.45.8-4.89,1.59-7.3,2.35l-6.7,2.13L184.63,73c-1.49.47-2.52.77-3.1.92a32.58,32.58,0,0,1-.85,4.65c-.38,1.38-.76,2.66-1.16,3.83s-.79,2.26-1.16,3.26a23.6,23.6,0,0,0-.87,2.87l.11.4a.8.8,0,0,1,0,.42Zm30.54-37a.52.52,0,0,0-.16.07.92.92,0,0,1-.29.11,2.14,2.14,0,0,0,.64,0l5.93-1.19A.74.74,0,0,0,214,51Zm-.18,35.28a1.34,1.34,0,0,0,.25.44,7.76,7.76,0,0,0,1-.31c.28-.12.4-.29.34-.52Zm7-1.32q0-.14.69-.39a14.64,14.64,0,0,1,1.47-.44,4.27,4.27,0,0,1,1-.17c.17,0,.27,0,.29.14s0,.17-.2.23a9,9,0,0,1-1,.27c-.5.13-1,.24-1.5.34S215.53,86.26,215.51,86.17ZM221.05,50a.93.93,0,0,0-.75-.42,4.31,4.31,0,0,0-1.2.08c-.45.09-.92.21-1.41.35a5.73,5.73,0,0,1-1.44.25,6,6,0,0,1,.77.53Zm11.83,26.85a7,7,0,0,1-.71.29l-.74.22a1.68,1.68,0,0,1-1,0,1.65,1.65,0,0,1,.73-.65,4.73,4.73,0,0,1,1-.34c.5-.13.77-.08.83.15A.39.39,0,0,1,232.88,76.83Z"/><path class="cls-1" d="M290.85,74.66l.44-1.39.71-1.18a4.11,4.11,0,0,0,.06-.63.94.94,0,0,0,0-.32.21.21,0,0,0-.15,0c-.22,0-.49.48-.79,1.27s-.61,1.67-.92,2.63-.6,1.83-.86,2.61-.45,1.19-.59,1.22-.21-.13-.36-.45a4.52,4.52,0,0,1-.34-1,3,3,0,0,1-.11-.58,4.33,4.33,0,0,1,0-.53,13.91,13.91,0,0,1-.92,1.34,13.57,13.57,0,0,1-1,1.13,5.68,5.68,0,0,0-.26,1.25,9.86,9.86,0,0,1-.2,1.23l-.71,1.18-.13,0,.18-.4a13.18,13.18,0,0,0,.26-1.57,4,4,0,0,1,.42-1.46.26.26,0,0,1-.34-.21,7.54,7.54,0,0,1,.49-2.51q.6-2.06,2.43-6.52a2,2,0,0,0-1,.79,13.37,13.37,0,0,0-.92,1.45c-.3.53-.57,1-.8,1.42s-.41.64-.55.67-.08-.05-.11-.19a2.54,2.54,0,0,1,.27-.89,5.35,5.35,0,0,0,.4-1.56l-.89,1.58-.53.49.71-1.18.24-.2a3.9,3.9,0,0,0,.34-2.67,8.16,8.16,0,0,1,0-2.61c.13-1.2.35-2.62.66-4.25s.71-3.43,1.19-5.41,1-4.06,1.57-6.23,1.15-4.37,1.76-6.6,1.24-4.4,1.86-6.51c-.36.09-.72.19-1.07.3l-1.07.3q-2.79,4.35-5.61,8.56T279,55q-2.76,3.73-5.31,6.87a63.15,63.15,0,0,1-4.8,5.35,1.72,1.72,0,0,1-.93.58,3.6,3.6,0,0,1-2.79-.59c-1-.61-2.06-1.18-3.15-1.72a35.39,35.39,0,0,1-4.45-2.76,17.1,17.1,0,0,1-2.73-2.48,9.89,9.89,0,0,1-1.47-2.17,11,11,0,0,1-.68-1.87c-.09-.36-.17-.72-.23-1.06s-.12-.65-.19-.92c-.26-1-.5-2-.74-3s-.48-1.83-.73-2.68l-.54.14q-1.51,5.74-2.86,10.7c-.89,3.3-1.66,6.18-2.29,8.63q-1.23,4.31-2.14,7.83A24.42,24.42,0,0,0,242,79c-.29,1.14-.59,2.23-.91,3.27a17.77,17.77,0,0,1-1,2.65c-.37.74-.78,1.16-1.23,1.27s-.59-.07-.69-.47a3.77,3.77,0,0,1-.1-2c.15-.44.34-1,.56-1.6a1.91,1.91,0,0,1-.65.55,3.22,3.22,0,0,1-.78.3,3.37,3.37,0,0,1-2.33-.13,2.68,2.68,0,0,1-1.33-1.89,4.51,4.51,0,0,1,.38-2.82,1.2,1.2,0,0,1-.46.19,1.85,1.85,0,0,1-1.4-.19,2.83,2.83,0,0,1-1-1.86,15.31,15.31,0,0,1-.18-4.46q.28-4.08.52-6.58t.48-4.38c.17-1.26.37-2.45.61-3.59s.59-2.54,1-4.23c-3.19.79-5.8,1.4-7.83,1.8s-3.61.71-4.78.91a22.05,22.05,0,0,1-2.4.31c-.42,0-.65,0-.67-.12s.18-.2.6-.33,1-.33,1.74-.61a32.69,32.69,0,0,1-5,1c-.85,0-1.32-.11-1.41-.47s.22-.54.84-.82,1.2-.5,1.73-.68c-.79.1-1.21,0-1.27-.18s.06-.29.28-.47a10.84,10.84,0,0,1,2.22-.87q1.89-.61,5.91-1.72t11.36-3c.47-1.94,1-4.23,1.65-6.89s1.38-5.87,2.26-9.63q.15-.54.54-2.46c.25-1.28.56-2.72.93-4.31s.74-3.18,1.11-4.75.7-2.85,1-3.83c.23-1.39.81-2.21,1.76-2.44a8,8,0,0,1,2.85.08,13.71,13.71,0,0,1,3.92,1.24,9.09,9.09,0,0,1,2.44,1.87,18.15,18.15,0,0,1,2.06,2.67,24.88,24.88,0,0,1,1.66,3.1c.48,1.07.93,2.13,1.33,3.18.46,1.27.88,2.4,1.28,3.4s.74,2,1,2.9.59,1.85.87,2.79.56,2,.84,3.08l.54,2.19q.3,1.18.57,2.55L263,44s0,.06.09,0,.2-.14.33-.37.25-.35.34-.37a33.59,33.59,0,0,1,3.4-5.21q2.24-2.93,5.18-6.23t6.3-6.76q3.38-3.45,6.78-6.74T292,12.14q3.24-3,5.86-5.22c1.75-1.51,3.23-2.74,4.42-3.68a13.07,13.07,0,0,1,2.39-1.63c.74-.28,1.43-.52,2.08-.73s1.2-.37,1.7-.5a8.06,8.06,0,0,1,3.18-.32,1.36,1.36,0,0,1,1.2,1l.05.21a3.69,3.69,0,0,1,1.23,2.34,22.89,22.89,0,0,1,.51,5.5c0,2.22-.16,4.52-.4,6.9s-.55,4.68-.93,6.93-.74,4.07-1.1,5.5l22-5.54a6.47,6.47,0,0,1,1.38-.2c.43,0,.65,0,.68.12s-.36.3-1.17.5c-1.35.34-2.48.61-3.41.82l-2.72.6c-.88.2-1.84.4-2.89.61s-2.33.51-3.86.89l0,.07a4.2,4.2,0,0,1-1.16.39l-2.78.77-3.36.9c-1.16.32-2.12.57-2.89.76l-.13.6,33.77-7.89a3.28,3.28,0,0,1,.9-.12c.24,0,.38.06.4.15s-.36.31-1.17.51l-1.41.35a.69.69,0,0,0-.23.09.92.92,0,0,1-.29.11l-.07,0c.06.08.37.06.92,0l1.15-.25,1.2-.08-.66.23-.56.07q-2,.48-10.32,3t-24.56,7c-.2.58-.44,1.31-.75,2.19s-.71,2.07-1.23,3.53-1.15,3.31-1.89,5.52-1.63,4.91-2.68,8.08-2.28,6.89-3.67,11.15-3,9.2-4.81,14.81a15.44,15.44,0,0,1-.65,2.41,22.33,22.33,0,0,0-.72,2.44.55.55,0,0,1-.2.62,2.1,2.1,0,0,0-.56.64l0-.07a5.07,5.07,0,0,1,.23-1.81c.22-.94.53-2,.92-3.34s.81-2.66,1.24-4.1.84-2.82,1.24-4.11.7-2.4.92-3.34a5.31,5.31,0,0,0,.23-1.81l0-.14a6.55,6.55,0,0,0-.69,1.82c-.37,1.19-.84,2.67-1.4,4.43s-1.15,3.69-1.76,5.77-1.18,4-1.75,5.77-1.06,3.25-1.5,4.46-.73,1.83-.87,1.86l-.08,0L296.58,66c-.46,1.59-.88,3-1.25,4.21s-.76,2.53-1.2,4-.86,2.74-1.27,4-.78,2.26-1.12,3.11-.6,1.29-.78,1.34-.09-.08-.13-.26a2,2,0,0,0,0,.93l-.71,1.18a1.85,1.85,0,0,1,.14-1.18l.57-1.15a17.46,17.46,0,0,1,.11-1.88c.08-.84.19-1.73.33-2.7s.27-1.93.39-2.89.22-1.74.32-2.33l-.48,1.55-1,1.46Zm-3.12,6.44.25,1-2,6.3L287,82.28Zm.15-11.78a8,8,0,0,1,.18-1.41c.1-.45.19-.93.26-1.42l.45-.76a1.44,1.44,0,0,1-.42,0,1,1,0,0,0-.35,0c-.18,0-.27.18-.25.42Zm.67-2.46,0,.15Zm.34-1.23,0,.06.51-.84c-.09,0-.22.18-.39.46Zm1.65-5.21a1.42,1.42,0,0,0-.29.57c-.12.32-.25.67-.42,1.07s-.3.78-.43,1.15-.21.62-.27.78l.66-1.09a2.92,2.92,0,0,1,.54-.71Zm-.42,17.07.16.61-.71,1.18-.16-.61Zm2.78-6.7c0-.71,0-1.41,0-2.12a13.14,13.14,0,0,0-.07-2.16l-.71,1.18a11.84,11.84,0,0,1,0,2.06c0,.68-.05,1.35,0,2ZM293.6,33l.21-.05.1-.46Zm.65,32.56c.12.07.22-.08.32-.43s.21-.77.31-1.23.21-1.1.34-1.94l-.41,1.24-.38,1.21A3.88,3.88,0,0,0,294.25,65.58Zm7.91-4.18.25,1-2,6.3,1.05-6.14Z"/></g></g></svg>