<svg xmlns="http://www.w3.org/2000/svg" viewBox="0 0 127.57 58.63"><defs><style>.cls-1{fill: #fff>;}</style></defs><g id="Layer_2" data-name="Layer 2"><g id="Layer_1-2" data-name="Layer 1"><path class="cls-1" d="M23.89,32.25a12.64,12.64,0,0,0-3,1.74,12.57,12.57,0,0,0-4,5.25A12,12,0,0,0,16,42.49L39.29,35l-2,.73c.84-.29,1.53-.52,2.08-.69l1.27-.41.56-.19a5.29,5.29,0,0,1-.88.37c-.59.23-1.33.5-2.21.82s-1.83.67-2.84,1l-2.81,1L35,36.85c.94-.3,1.9-.6,2.87-.89l2.84-.87,2.48-.74c.72-.22,1.3-.38,1.75-.5s.68-.16.69-.12-.13.12-.43.21l-.52.17-.08,0a.23.23,0,0,1-.11.05h0s.14,0,.34-.05L45.2,34l.44-.06-.24.11v0l-.65.25L43.1,35l-3,1.11c-1.22.46-2.74,1-4.58,1.66a27.71,27.71,0,0,1-1.09,8.06,17.48,17.48,0,0,1-3,5.81,16.88,16.88,0,0,1-4.66,4,29.38,29.38,0,0,1-6,2.65,7.5,7.5,0,0,1-3.66.28,10.57,10.57,0,0,1-3.37-1.14,10.43,10.43,0,0,1-2.64-2A6.12,6.12,0,0,1,9.7,53.16,23,23,0,0,1,9,49.83a21.16,21.16,0,0,1-.15-3.17l-1.76.57c-1.32.43-2.36.75-3.1,1s-1.3.36-1.67.44a3.15,3.15,0,0,1-.68.11q-.15,0-.15,0s.06-.08.22-.14l.63-.27a13.53,13.53,0,0,1-1.83.5c-.32,0-.5,0-.54-.14s.06-.21.28-.33L.92,48c-.29.06-.45,0-.47,0s0-.11.11-.2a4.59,4.59,0,0,1,1-.44c.54-.21,1.41-.53,2.58-.93s2.83-1,5-1.68a17.94,17.94,0,0,1,1.8-5.8,20.85,20.85,0,0,1,3.26-4.69,20.2,20.2,0,0,1,4.17-3.48,19.75,19.75,0,0,1,4.56-2.18A12.53,12.53,0,0,1,26,27.94a7.86,7.86,0,0,1,2.29.19,3.63,3.63,0,0,1,1.45.7,2.2,2.2,0,0,1,.66.89,1,1,0,0,1-.11,1,1.7,1.7,0,0,1-.74.48,4.58,4.58,0,0,1-.94.19l-1.18.11c-.43,0-.89.09-1.39.17a10.86,10.86,0,0,0-1.5.36l-.34.11ZM21.67,51.48a18.16,18.16,0,0,0,3-1.29,9.72,9.72,0,0,0,2.33-1.72,7.93,7.93,0,0,0,1.55-2.25,8.52,8.52,0,0,0,.69-2.85L27.23,44l-1.31.41-.69.21c-.13,0-.2,0-.18,0-.19,0-.3-.06-.32-.14a.13.13,0,0,1,0-.06s0,0,0-.08l-2.47.75-1.62.47c-.4.11-.7.18-.88.21a1,1,0,0,1-.28,0s.05-.06.18-.12l.5-.22.72-.28.81-.32,0-.15A6.64,6.64,0,0,1,21,45l-.89.3-.82.26-.73.2-.53.15c-.13,0-.2,0-.21,0,.31-.11.56-.21.74-.29l.51-.2c.15-.06.23-.11.22-.14l-.68.11a1.28,1.28,0,0,1-.45,0s0-.07.14-.11l.35-.13L20,44.77l.59-.24q.16-.06.15-.09s0,0-.13,0a3.29,3.29,0,0,1-.7.17c-.13,0-.21,0-.21,0s.05-.09.19-.17a2.67,2.67,0,0,1,.48-.21l1.44-.44c.08-.06.11-.09.11-.11s-.09,0-.23,0l-.49,0-.52.06h-.33l-.85-.36s.08-.06.27-.13L20.5,43l1-.32.95-.32.73-.24.27-.09-1.64.51a3.22,3.22,0,0,1-.93.19L15.9,44.37a13.66,13.66,0,0,0,.69,3.93,7.41,7.41,0,0,0,.7,1.54A4.13,4.13,0,0,0,18.37,51a3.37,3.37,0,0,0,1.46.62A3.63,3.63,0,0,0,21.67,51.48Zm-1.59-7.4s0,.08-.18.14a3.58,3.58,0,0,1-.46.19l-.56.21-.47.17-.75.21c-.14,0-.21,0-.22,0s.1-.11.34-.22a7.83,7.83,0,0,1,1.08-.4c.29-.1.56-.18.8-.24S20.05,44.05,20.08,44.08Zm-2,2.22a1.3,1.3,0,0,0,.27-.1l.29-.1.2,0H19a.8.8,0,0,1-.26.26,1.74,1.74,0,0,1-.34.16.47.47,0,0,1-.23,0,.13.13,0,0,1-.14-.08A.17.17,0,0,1,18.11,46.3Zm4.1-2.64c1.23-.43,2.12-.75,2.67-1a5.77,5.77,0,0,0,1-.42l0,0s-.09,0-.26.06-.35.12-.6.22l-.81.3-.92.34-.9.32Zm1.44,1.24a.3.3,0,0,1,0,.1s0,.07,0,.1c-.33.11-.53.1-.61,0Z"/><path class="cls-1" d="M42.18,24.39s0,0-.08,0S42,24.3,42,24.24a.44.44,0,0,1,.06-.24.56.56,0,0,1,.09-.17h.44a1,1,0,0,1,.18-.36L43,23.1a2.56,2.56,0,0,0,.22-.39.54.54,0,0,0,0-.37s0-.09.09-.16a.9.9,0,0,1,.41-.22L44,21.9a.38.38,0,0,1,0-.36.41.41,0,0,1,.18-.15h.09a.15.15,0,0,0,.09,0,2,2,0,0,0,1-.61,1.58,1.58,0,0,1,.56-.47.73.73,0,0,1,.3,0,6.09,6.09,0,0,0,.74-.34l1.19-.6,1.42-.72L51,17.88l1.24-.6a8.1,8.1,0,0,1,.81-.35,4.48,4.48,0,0,1,1.33-.2,2.31,2.31,0,0,1,1.44.54,6.57,6.57,0,0,1,1.35,1.45,6.78,6.78,0,0,1,.93,1.78,6,6,0,0,1,.24,2.83A9.63,9.63,0,0,1,57.52,26,12.82,12.82,0,0,1,56,28.36a19.49,19.49,0,0,1-1.74,2l1.38-.47,1.49-.49,5.15-1.69.27-.09a1.56,1.56,0,0,1,.3-.07l4-1.29a1.67,1.67,0,0,1,.42-.09c.13,0,.2,0,.21,0s-.1.09-.33.16l-1.09.34-.87.26-.9.26-1.23.38a3.27,3.27,0,0,1-.64.27l-1.61.57-1.91.67-1.53.53-.4.12c.71-.21,1.56-.46,2.52-.76l3-.89,3.06-.92c1-.31,1.91-.58,2.71-.81s1.45-.42,2-.55a3.75,3.75,0,0,1,.75-.17c0,.05-.1.11-.35.19l-1.82.64s.18,0,.4,0l.67-.21.28-.07.53-.13.53-.09c.17,0,.26,0,.28.05s-.06.09-.23.19a6,6,0,0,1-.91.42c-.46.18-1.08.43-1.88.72s-1.82.66-3.07,1.09l-4.53,1.53-6.22,2-.66.21-.57.17-.87.26L51,33.09a13.17,13.17,0,0,1-1.63,1.21c-.55.34-1.09.7-1.63,1.08a7,7,0,0,0,1.31,1.17A14.81,14.81,0,0,0,51.56,38a32.08,32.08,0,0,0,4,1.5,58.24,58.24,0,0,0,5.84,1.46q1.91.39,3.87.6c1.32.14,2.64.27,4,.39s2.67.24,4,.38,2.66.35,4,.62h.36a2.81,2.81,0,0,1,.41,0,1.56,1.56,0,0,1,.42.08,1.26,1.26,0,0,1,.39.26l-.13,0-.13.06a.49.49,0,0,1-.27,0,.68.68,0,0,0-.28,0,.94.94,0,0,0-.32.13c.09.26.22.41.41.45a2.06,2.06,0,0,1,.54.2s0,.05,0,.12h-1c-.33,0-.64,0-.92,0a1.3,1.3,0,0,0-.54.35,1.42,1.42,0,0,1-.52.34,1.54,1.54,0,0,1-.57.08l-.58-.05-.58,0a1.52,1.52,0,0,0-.53.06,2.88,2.88,0,0,1-.59.27,2.2,2.2,0,0,1-.62.12.48.48,0,0,1-.29,0l-.3-.11-.32-.1a.57.57,0,0,0-.34,0,8.07,8.07,0,0,1-1.06.25c-.47.09-1,.17-1.62.25s-1.28.15-2,.21-1.39.11-2.07.14-1.31,0-1.91,0a9.73,9.73,0,0,1-1.5-.13q-3.55-.63-5.94-1.27c-1.58-.43-2.9-.84-3.94-1.24a18.51,18.51,0,0,1-2.5-1.15c-.62-.37-1.15-.71-1.59-1s-.85-.62-1.21-.87a4.84,4.84,0,0,0-1.37-.64,13.74,13.74,0,0,0-.57,2.22,20.17,20.17,0,0,0-.26,2.92A16.09,16.09,0,0,1,43,48.27a2,2,0,0,1-1.2,1.56.19.19,0,0,1-.27-.13.41.41,0,0,1,0-.11l0-.59-.24,1.72q0,.27-.09.3s0,0,0,0a1.89,1.89,0,0,1-.08-.6,5.73,5.73,0,0,1,.06-.81c0-.29.07-.56.1-.83s.06-.5.09-.71A5.53,5.53,0,0,0,41,49.32c-.1.5-.19,1-.25,1.47s-.12.89-.15,1.24a2.79,2.79,0,0,1-.07.53s0,0,0,0a.88.88,0,0,1,0-.16v-.22s0-.18,0-.5,0-.61,0-.88l0,.06c0-.33,0-.59,0-.78s0-.45,0-.76v-.05c0,.34-.07.61-.09.82s0,.4-.07.57,0,.26,0,.26,0,0-.05-.06,0-.06,0-.11a2.6,2.6,0,0,1,0-.28c0-.13,0-.33,0-.58s0-.6,0-1l-.07.09a.29.29,0,0,0-.07.16,2.06,2.06,0,0,0-.08.43,8.16,8.16,0,0,0-.06.91,3.17,3.17,0,0,1-.07.5c0,.15-.07.23-.1.24s0,0,0,0a1.42,1.42,0,0,1,0-.43V49.6s0,0,0,0-.15.2-.17.51,0,.64,0,1,0,.7,0,1,0,.46-.08.47,0,0-.05-.06a2.12,2.12,0,0,1,0-.42v-.55a2.38,2.38,0,0,1,0-.35c0-.23,0-.47,0-.72s0-.63-.07-1c0,.48,0,.82,0,1a1.45,1.45,0,0,1,0,.32s0-.22-.06-.62,0-.86-.08-1.36,0-1-.09-1.44a5.86,5.86,0,0,0-.12-.88c0,.29,0,.62-.06,1s-.05.76-.07,1.1-.05.65-.08.89,0,.38-.07.38v0s0-.29-.08-.77-.08-1.22-.12-2.23-.08-2.31-.11-3.9,0-3.51,0-5.78l-2.9.94c-1.28.41-2.31.7-3.08.86a5.62,5.62,0,0,1-1.18.19s.09-.12.33-.24a3.31,3.31,0,0,1-.78.18.25.25,0,0,1-.26-.18c0-.08,0-.16.11-.24a1.57,1.57,0,0,1,.27-.18c-.16,0-.25,0-.27-.08a.2.2,0,0,1,0-.13.68.68,0,0,1,.23-.21,5.65,5.65,0,0,1,.67-.34c.32-.14.77-.31,1.36-.52s1.32-.47,2.21-.77,2-.67,3.29-1.09c0-1.93,0-3.42,0-4.47a12.64,12.64,0,0,1,.19-2.15c0-.43,0-.82,0-1.19s0-.66.06-.87a1.21,1.21,0,0,0,0-.35c0-.15-.06-.31-.08-.46a2.09,2.09,0,0,1,0-.42.21.21,0,0,1,.15-.23,2.49,2.49,0,0,1,.81-.05l1.2.06c.41,0,.78.07,1.1.11a2.08,2.08,0,0,1,.52.1,1.1,1.1,0,0,1,.25.08,4.29,4.29,0,0,1,.46.2,2.34,2.34,0,0,1,.47.3.78.78,0,0,1,.28.37l.16.42c.07.14.12.28.17.41a8.09,8.09,0,0,1,.32,1.51c.06.53.09,1.06.1,1.59s0,1.05,0,1.57,0,1,0,1.52c.62-.18,1.07-.31,1.37-.38l.62-.15A7.47,7.47,0,0,0,48,31.31a11.24,11.24,0,0,0,1.24-1.95,12.17,12.17,0,0,0,.81-2,19.25,19.25,0,0,0,.47-1.89c.12-.57.2-1.06.25-1.48s.09-.72.12-.89a5.71,5.71,0,0,0-1,.16c-.46.11-1,.24-1.56.41l-1.86.56c-.66.2-1.27.4-1.85.59-.27.08-.5.16-.69.23l-.52.18c-.38.13-.62.13-.73,0a2.08,2.08,0,0,1,.14-.36.42.42,0,0,0,0-.35l0,0a.16.16,0,0,1,0-.07.8.8,0,0,1-.16.08A.43.43,0,0,1,42.18,24.39ZM39.35,47.73a.42.42,0,0,0,.11-.33,1.08,1.08,0,0,0,0-.3l0-.07c0-.06,0-.17-.05-.37l-.09-.6c0-.21-.06-.41-.08-.59s0-.29-.05-.33a3.7,3.7,0,0,0,0,.44c0,.25,0,.53.06.83s.05.58.08.85A2.82,2.82,0,0,0,39.35,47.73Zm.47,4.92a3.63,3.63,0,0,1,0-.4c0-.2,0-.41.07-.63S40,51.19,40,51s0-.31,0-.36a1.39,1.39,0,0,1,0,.35c0,.16,0,.33,0,.51s0,.33,0,.48a1.07,1.07,0,0,0,0,.3v0a4.64,4.64,0,0,1-.09.51c0,.2-.08.31-.11.32A2,2,0,0,1,39.82,52.65Zm.83-11.74a.54.54,0,0,1-.08-.17,1.21,1.21,0,0,0,0,.38c0,.22,0,.44,0,.68s0,.47,0,.69a.91.91,0,0,1-.09.4,2.64,2.64,0,0,0,0,.54c0,.36,0,.77,0,1.22s0,.89,0,1.3a3.46,3.46,0,0,0,.09.82l0,0s0-.12,0-.4,0-.65,0-1.08,0-.9,0-1.4,0-1,0-1.4,0-.94.06-1.53A.24.24,0,0,1,40.65,40.91Zm.14-16s0,0,0,0l-.09-.08a.21.21,0,0,1,0-.15.12.12,0,0,1,0-.09h.49a.26.26,0,0,1,.13,0c0,.08,0,.17-.18.26a1.12,1.12,0,0,1-.27.15s0,0-.06,0A.31.31,0,0,0,40.79,24.9Zm.8,21.45s0,0,0,0,0,0,0,0l-.07,0,0,.09a.14.14,0,0,1,0,.06s0,0,0,.06c0,.44,0,.76,0,1a1.45,1.45,0,0,0,0,.39v0s0-.09.08-.23l.09-.47c0-.17.07-.4.13-.69Zm.6-3.81s0,0,0-.06a.07.07,0,0,1,0-.06l0-.06c-.05,0-.08,0-.1,0H42.1s-.05,0-.06,0a.57.57,0,0,1,0,.16.8.8,0,0,0,0,.18v0Zm.14-20.06a0,0,0,0,1,0,0l-.08-.09a.21.21,0,0,1,0-.14.16.16,0,0,1,0-.1,3.9,3.9,0,0,1,.5,0,.25.25,0,0,1,.12,0c0,.09,0,.18-.17.27l-.27.15a0,0,0,0,1-.06,0A.26.26,0,0,0,42.33,22.48Zm.32,22.41a.25.25,0,0,0-.14.32.36.36,0,0,0,.18.25c.07,0,.1.06.08.07s.06-.05.09-.12.06-.23.11-.46l-.08-.08s0,0-.07,0l-.06,0a.2.2,0,0,1-.09.05S42.64,44.87,42.65,44.89ZM47.41,34.8,48.94,34l-.49.12a3.39,3.39,0,0,0-.57.14,2.35,2.35,0,0,0-.4.16c-.11,0-.14.11-.12.19Z"/><path class="cls-1" d="M66.11,36.81l.61-.21.69-.24L69,35.87l2.31-.69L74,34.39l2.62-.78,2.24-.67,1.53-.46-.52.23-1.26.56-1.39.6a9.34,9.34,0,0,1-.9.35l0,0a1.23,1.23,0,0,0,.68-.08c.35-.1.79-.23,1.31-.4s1.05-.34,1.62-.55l1.6-.57,1.23-.45.58-.22a2.39,2.39,0,0,1,.39-.08c.17,0,.26,0,.28.06s0,.12-.16.16l-.25.07-.28.07a.72.72,0,0,0-.3.17.26.26,0,0,0,0,.3c0,.05-.11.12-.39.22s-.56.19-.88.3l-.89.3a1.19,1.19,0,0,0-.4.17c0,.07.11.09.26.07l.49-.09.5-.11c.15,0,.23,0,.25,0a.1.1,0,0,1-.06.1,5.39,5.39,0,0,1-.6.16,4.28,4.28,0,0,0-.46.1.24.24,0,0,1-.25-.08c-.08-.08-.14-.12-.17-.11v0l0,.09,0,.08a.07.07,0,0,0,0,0,.5.5,0,0,1-.32.21,2.58,2.58,0,0,1-.42.1,1.58,1.58,0,0,0-.37.08s-.1.09-.16.23a.54.54,0,0,1-.36.29h-.15l.58-.1.42-.07c.13,0,.2,0,.22,0s0,.07-.2.11l-.44.15-.27.08a.19.19,0,0,1-.14,0l-.23.09a.12.12,0,0,0-.07.17s.11,0,.31,0,.44-.11.73-.2l1-.29.93-.3a6,6,0,0,1,.75-.21c.2,0,.31-.06.32,0-.55.22-1.1.43-1.62.66l-1.46.59-1.3.55a1.12,1.12,0,0,1-.24.34,1.8,1.8,0,0,1-.81.47,3.61,3.61,0,0,0-.72.39q-.52.33-1.23.81L73.58,39.2,72,40.34l-1.48,1c-.46.31-.83.56-1.14.75s-.73.44-1.08.64a5,5,0,0,0-.89.63.67.67,0,0,1-.35.28A1.59,1.59,0,0,1,66,43.52a8.41,8.41,0,0,1-1.41-.77A16.87,16.87,0,0,1,63,41.59c-.52-.43-1-.85-1.45-1.27a15,15,0,0,1-1.13-1.14,3.9,3.9,0,0,1-.56-.76,2.8,2.8,0,0,1-.08-.85c0-.37,0-.8.1-1.29s.14-1,.22-1.64.2-1.21.32-1.85a1.78,1.78,0,0,1-1.35-.38,2.22,2.22,0,0,1-.56-.89,3.19,3.19,0,0,1-.09-.31c0-.1,0-.19-.05-.28a1.22,1.22,0,0,1,0-.27c-1.53.49-2.71.86-3.56,1.11l-1.91.54a4,4,0,0,1-.78.15c-.11,0-.16,0-.17-.05s.06-.08.21-.14L52.8,32a11.41,11.41,0,0,1-1.84.49c-.31,0-.49,0-.54-.14s.07-.2.3-.32a6.88,6.88,0,0,1,.62-.3c-.29.06-.45,0-.47,0a.15.15,0,0,1,0-.12,1.08,1.08,0,0,1,.35-.22c.2-.1.52-.24,1-.41L54,30.29l3-1c1.19-.41,2.64-.89,4.36-1.44l.3-2c.06-.4.14-.87.27-1.41s.23-1.1.37-1.68.26-1.17.4-1.75l.38-1.57.3-1.17c.08-.31.13-.49.15-.55a3,3,0,0,1,.3-.73.64.64,0,0,1,.34-.27,1.08,1.08,0,0,1,.28-.05,1.66,1.66,0,0,0,.89-.38,2.92,2.92,0,0,1,.53-.26l1.2-.51,1.52-.64,1.53-.63,1.2-.49.53-.21,1.73-.59L76,12.07l2.76-1,2.65-.94,2.11-.75L84.69,9l.1,0s0,0,0,0l.19-.07.2-.08.39-.14A2.3,2.3,0,0,1,86,8.6a2.08,2.08,0,0,1,.39,0,.21.21,0,0,1,.21.15c0,.05,0,.09,0,.09a.87.87,0,0,1-.29,0,1,1,0,0,0-.44.05L85.59,9a.7.7,0,0,0,.09.16l.16.25.18.29a1.45,1.45,0,0,1,.11.22c0,.05,0,.09-.13.12a1.64,1.64,0,0,1-.36.08,2.64,2.64,0,0,0-.38.08,29.08,29.08,0,0,1-2,2.16,18.24,18.24,0,0,1-2,1.67,24,24,0,0,1-2.22,1.4c-.79.43-1.68.88-2.69,1.35s-2.16,1-3.44,1.53l-4.4,1.95a5.18,5.18,0,0,0-.29.91,11.41,11.41,0,0,0-.21,1.26c0,.44-.08.87-.09,1.27a6.35,6.35,0,0,0,0,1l.79-.24,1-.31.27-.1.29-.11.3-.07,2.13-.68c.72-.22,1.37-.41,2-.56s1.33-.5,1.82-.67.87-.32,1.19-.42l.71-.22.33-.11.86-.27,1.3-.38,1.46-.4,1.36-.37c.41-.12.75-.2,1-.26s.4-.07.42,0a1.65,1.65,0,0,1-.44.18l-1,.36c-.38.13-.76.28-1.13.42a4.11,4.11,0,0,0-.76.37L88.9,18.9l5.33-1.72a2,2,0,0,1,.51-.11c.16,0,.24,0,.25,0s-.12.13-.41.22l-1.26.39-1,.3c-.32.1-.69.2-1.07.3l-1.41.43v0s-.11.07-.36.16l-1,.34-1.33.45-1.48.51-1.41.48-1.11.37-.29.1a2,2,0,0,0,.7-.13l1.84-.52c.76-.21,1.61-.47,2.57-.77L91,18.84l2.93-.91,2.57-.79,1.82-.53a2.12,2.12,0,0,1,.71-.15c0,.05-.12.12-.43.22l-.51.17-.09,0s0,0-.1.05h0s.14,0,.34-.05l.43-.12.45-.06-.24.1-.21,0c-.25.08-.7.25-1.36.5l-2.69,1c-1.13.42-2.51.93-4.12,1.51s-3.51,1.26-5.67,2h0a2,2,0,0,1,.51-.11c.15,0,.24,0,.25,0s-.13.12-.42.22L84,22.39l-.94.27s0,.08,0,.12a.38.38,0,0,1-.05.12l.64-.2.81-.26.73-.19c.2-.05.31-.05.33,0s-.13.12-.43.21l-.52.17-.22.11a4.67,4.67,0,0,1-.45.23l-.52.27a2.91,2.91,0,0,1-.44.19l1-.28c.2-.06.3-.08.31-.06s0,0-.16.09l-.46.18L83,23.6l-.68.26a1,1,0,0,1,.15.14l.81-.21.74-.18c.22-.05.4-.1.55-.12s.22,0,.22,0-.14.11-.47.23-.89.33-1.69.61a.37.37,0,0,1-.2.32,5,5,0,0,0-.42.31l-.52.24c-.37.16-.87.38-1.5.63l-2.19.9-2.58,1.06-2.67,1.07-2.45,1-1.95.76L67,31a12.73,12.73,0,0,1-.2,1.77c-.1.52-.21,1-.33,1.46s-.24.86-.35,1.25a7,7,0,0,0-.25,1.09l0,.15a.25.25,0,0,1,0,.16ZM76.57,22.17l-.06,0-.11.05a.66.66,0,0,0,.24,0l2.19-.6a.29.29,0,0,0-.29,0Zm.84,13.2a.38.38,0,0,0,.11.16,2.32,2.32,0,0,0,.35-.14c.1,0,.14-.12.11-.2ZM81.15,21a.36.36,0,0,0-.29-.14,1.48,1.48,0,0,0-.44.07,4,4,0,0,0-.53.16,2,2,0,0,1-.53.13l.31.18ZM80,34.7s.08-.09.25-.17l.54-.2a1.42,1.42,0,0,1,.37-.09c.06,0,.1,0,.11,0s0,.06-.07.09a2.52,2.52,0,0,1-.35.13l-.55.16C80.12,34.72,80,34.73,80,34.7Zm6.26-3.94-.26.12-.27.1a.62.62,0,0,1-.36,0,.53.53,0,0,1,.25-.26,1.19,1.19,0,0,1,.35-.15c.18-.06.29-.05.31,0A.19.19,0,0,1,86.27,30.76Z"/><path class="cls-1" d="M107.89,28.44l.14-.53.23-.45V27.1h-.06c-.09,0-.17.19-.27.5s-.18.63-.28,1-.17.7-.25,1-.14.46-.19.47-.08,0-.14-.15a1.48,1.48,0,0,1-.15-.35,1.23,1.23,0,0,1-.06-.22l0-.19a4.63,4.63,0,0,1-.3.52,3.75,3.75,0,0,1-.34.45,2,2,0,0,0-.06.47,3.56,3.56,0,0,1,0,.47l-.23.46h0l0-.15a5.61,5.61,0,0,0,.06-.59,1.43,1.43,0,0,1,.11-.56.09.09,0,0,1-.13-.07,2.84,2.84,0,0,1,.12-1c.12-.52.36-1.35.73-2.49a.7.7,0,0,0-.35.32c-.11.17-.21.36-.32.57l-.26.55c-.07.15-.13.24-.18.26s0,0,0-.07a.89.89,0,0,1,.08-.34,2,2,0,0,0,.11-.59l-.3.61-.18.2.24-.46.08-.08a1.48,1.48,0,0,0,.06-1,3.17,3.17,0,0,1-.07-1c0-.45.06-1,.14-1.6s.17-1.3.3-2.06.27-1.54.43-2.37.32-1.66.49-2.51.34-1.68.52-2.48l-.39.14-.4.14c-.62,1.13-1.23,2.24-1.87,3.34s-1.26,2.14-1.88,3.12-1.22,1.88-1.81,2.7a24.23,24.23,0,0,1-1.65,2.13.65.65,0,0,1-.33.24,1.38,1.38,0,0,1-1.06-.15c-.4-.2-.81-.39-1.23-.56a14,14,0,0,1-1.73-.92A6.68,6.68,0,0,1,94.05,24a3.72,3.72,0,0,1-.6-.78,3.63,3.63,0,0,1-.31-.68c0-.13-.07-.26-.11-.39a2.31,2.31,0,0,0-.1-.34l-.35-1.09c-.11-.35-.23-.67-.34-1l-.2.07c-.28,1.46-.54,2.82-.79,4.08s-.46,2.35-.63,3.28c-.24,1.1-.44,2.09-.61,3a11.42,11.42,0,0,0-.27,1.17c-.08.44-.17.85-.25,1.25a7.13,7.13,0,0,1-.32,1,.76.76,0,0,1-.43.51c-.13,0-.22,0-.26-.16a1.35,1.35,0,0,1-.09-.75c0-.17.1-.37.17-.61a1,1,0,0,1-.23.22,1.23,1.23,0,0,1-.29.13,1.27,1.27,0,0,1-.88,0,1,1,0,0,1-.54-.67,1.65,1.65,0,0,1,.07-1.06l-.17.08a.7.7,0,0,1-.53,0,1,1,0,0,1-.43-.67,5.43,5.43,0,0,1-.18-1.66c0-1,0-1.84,0-2.47s0-1.18.08-1.65.07-.93.13-1.36.16-1,.28-1.61c-1.18.38-2.14.67-2.88.88l-1.77.46c-.43.1-.73.16-.89.18s-.25,0-.25,0,.06-.08.21-.14l.64-.27a13.15,13.15,0,0,1-1.84.5c-.32,0-.49,0-.54-.14s.07-.21.29-.33.44-.22.63-.3c-.29.06-.45,0-.48,0s0-.11.1-.18a4,4,0,0,1,.8-.39l2.17-.79c1-.34,2.37-.82,4.17-1.41.13-.74.27-1.61.44-2.63s.36-2.23.59-3.65a8.76,8.76,0,0,0,.14-.94c.07-.48.14-1,.24-1.63s.19-1.21.29-1.81.19-1.08.27-1.46.24-.84.59-1a3,3,0,0,1,1.07,0,5.13,5.13,0,0,1,1.5.36,3.43,3.43,0,0,1,1,.64,6.47,6.47,0,0,1,.84,1,9,9,0,0,1,.7,1.11c.21.39.4.78.58,1.16s.39.88.57,1.24.32.71.46,1.05.27.68.4,1,.26.72.39,1.14l.27.8c.09.29.17.6.27.94l-.14.59s0,0,0,0,.06-.06.11-.15a.61.61,0,0,1,.11-.15,13.83,13.83,0,0,1,1.14-2c.51-.77,1.1-1.59,1.78-2.47s1.4-1.77,2.18-2.69,1.57-1.81,2.36-2.69S106,5.83,106.72,5s1.44-1.49,2-2.1,1.14-1.1,1.56-1.49a5,5,0,0,1,.85-.67c.27-.12.53-.24.77-.33l.61-.23a2.9,2.9,0,0,1,1.18-.2c.27,0,.42.14.48.32l0,.08a1.34,1.34,0,0,1,.52.84,8,8,0,0,1,.34,2.05c0,.83.06,1.69,0,2.59S115,7.66,115,8.5a20.68,20.68,0,0,1-.28,2.09L122.76,8a2.55,2.55,0,0,1,.52-.11c.16,0,.24,0,.25,0s-.13.12-.42.22l-1.26.39-1,.29-1.06.31c-.39.1-.87.25-1.43.43v0s-.13.08-.42.18l-1,.36-1.23.42-1.06.36,0,.23L127,7.26a1,1,0,0,1,.34-.07c.1,0,.15,0,.16,0s-.13.12-.43.21l-.52.17-.08,0a.28.28,0,0,1-.11,0h0s.15,0,.35,0l.43-.12.44-.06-.24.11-.2,0c-.49.16-1.74.62-3.79,1.39s-5,1.86-9,3.27l-.22.84c-.1.34-.22.79-.38,1.35s-.34,1.27-.56,2.11-.48,1.88-.79,3.09-.67,2.64-1.09,4.27-.88,3.52-1.42,5.66a5,5,0,0,1-.17.92,9,9,0,0,0-.21.93.2.2,0,0,1-.06.24.86.86,0,0,0-.19.25v0a2,2,0,0,1,0-.69c0-.35.14-.78.26-1.27s.23-1,.35-1.57.25-1.07.36-1.56.2-.92.25-1.28a2,2,0,0,0,0-.68l0-.05a2.26,2.26,0,0,0-.21.7c-.1.45-.25,1-.41,1.69s-.34,1.41-.51,2.2-.34,1.53-.5,2.21-.32,1.24-.45,1.7-.23.71-.28.72h0l1.67-9c-.14.61-.26,1.15-.36,1.61s-.23,1-.35,1.51-.25,1-.37,1.51-.24.87-.34,1.2-.19.49-.25.52-.05,0-.06-.09a.78.78,0,0,0,0,.34l-.23.46a.61.61,0,0,1,0-.44l.19-.45a5.07,5.07,0,0,1,0-.71c0-.31,0-.65,0-1s.05-.73.07-1.09,0-.66.06-.88l-.14.59-.34.57Zm-1,2.49.12.37-.59,2.41.24-2.32Zm-.25-4.4a3.19,3.19,0,0,1,0-.54q0-.25.06-.54l.15-.29-.16,0a.25.25,0,0,0-.13,0c-.07,0-.1.07-.08.16Zm.19-.94v0Zm.09-.47v0l.17-.33s-.07.08-.13.18Zm.49-2a.65.65,0,0,0-.1.22c0,.12-.07.26-.12.41a4.29,4.29,0,0,0-.13.44c0,.14-.07.24-.08.3l.22-.42a1.16,1.16,0,0,1,.17-.29Zm.29,6.4.06.22-.22.46-.08-.23Zm.15-16.73.07,0,0-.18ZM108.56,27a7.16,7.16,0,0,1,0-.8,5.84,5.84,0,0,0-.08-.81l-.24.46a4.11,4.11,0,0,1,.07.78,6.28,6.28,0,0,0,0,.75Zm.37-2s.08,0,.11-.17.06-.29.08-.46,0-.42.08-.74l-.12.48c0,.16-.08.31-.11.46A1.26,1.26,0,0,0,108.93,25Zm2.85-1.77.12.37L111.31,26l.24-2.32Z"/></g></g></svg>